<?xml version="1.0" encoding="utf-8"?>
<!-- Generator: Adobe Illustrator 21.1.0, SVG Export Plug-In . SVG Version: 6.00 Build 0)  -->
<svg version="1.1" id="Layer_1" xmlns="http://www.w3.org/2000/svg" xmlns:xlink="http://www.w3.org/1999/xlink" x="0px" y="0px"
	 viewBox="0 0 618 240.4" style="enable-background:new 0 0 618 240.4;" xml:space="preserve">
<style type="text/css">
	.st0{fill:#FFFFFF;}
</style>
<g>
	<g>
		<path class="st0" d="M461.9,122.9c-29.5,0-52.6,26.2-53.5,58.6c-1.6,55.8,72.8,75.1,97.2,44.3v-23.7c0,0-7.7,13.4-37.8,13.4
			c-30.1,0-31.1-22.4-31.1-22.4h77.6c0.7-3.8,1.1-7.7,1.1-11.7C515.3,149.1,491.4,122.9,461.9,122.9z M436.3,173.4
			c3.2-12.5,13.8-21.6,26.3-21.6c12.6,0,23.2,9.2,26.3,21.6H436.3z M76.9,139.5c-8.2-9.2-19-14.8-30.9-14.8c-25.4,0-46,25.7-46,57.5
			c0,31.7,20.6,57.5,46.1,57.5c11.9,0,22.7-5.6,30.9-14.8V239h29.6V125.3H76.9V139.5z M54.9,214.2c-13,0-23.6-14.1-23.6-31.5
			s10.6-31.5,23.6-31.5s23.6,14.1,23.6,31.5C78.4,200.1,67.9,214.2,54.9,214.2z M274.5,225.8v-58.2l0,0v-16.4
			c0,0-1.9-26.7-29.7-26.7C217,124.5,211,140,211,140s-8.1-16.9-29.2-16.9c-17.4,0-26.7,10.1-29.5,13.7v-12.1h-29v113.9h29v-74.3
			c1.8-4.6,6.8-13.7,17.2-13.7c11.4,0,14.8,9.4,15.5,15v60c1.1,5.7,4.4,9.7,8.5,13h29c-4.6-3.8-7.5-8-8.5-12.8v-56.1l0,0
			c0,0-0.9-18.1,16.4-19c12.5-0.6,14.8,10.8,15.1,17.1v3.4c0,0.4,0,0.6,0,0.6l0,0v53.7c1.1,5.7,4.4,9.7,8.5,13h29
			C278.4,234.8,275.4,230.6,274.5,225.8z M354.8,124.7c-11.9,0-22.7,5.6-30.9,14.8V90.2h-29.6V239h29.6v-14.2
			c8.2,9.2,19,14.8,30.9,14.8c25.4,0,46.1-25.7,46.1-57.5C400.8,150.4,380.2,124.7,354.8,124.7z M346,214.2
			c-13,0-23.6-14.1-23.6-31.5s10.6-31.5,23.6-31.5s23.6,14.1,23.6,31.5C369.5,200.1,359,214.2,346,214.2z M584.5,124.8L563.1,205
			l-21.5-80.2h-34.3l38,113.9h32.6L618,124.8H584.5z"/>
	</g>
	<g>
		<path class="st0" d="M158.2,48.7c-0.1-0.2-0.1-0.4-0.2-0.5c-2.3,2.6-4.8,4.2-8,5.2c-3.3,1-6.1,1-8.3-0.1c-2.5-1.2-4.3-3.7-5.5-7.4
			c-1.2-3.8-1.1-7,0.2-9.4c1.2-2.1,3.3-3.6,6.2-4.6c2.2-0.7,5-1.1,7.7-1.1l-2.3-5.9c-0.3,0-0.7,0-1,0c-2.6,0-5.2,0.4-7.8,1.2
			c-10.5,3.3-15.1,12.3-11.8,22.7c1.6,4.9,4.3,8.7,8,10.9c3.9,2.4,8.7,2.7,13.8,1.1c4.2-1.3,7-3.5,8.3-6.4
			C158.7,52.2,158.6,49.9,158.2,48.7L158.2,48.7z"/>
		<polygon class="st0" points="180.5,44.9 178.7,37.5 178.8,37.5 191.8,34.3 190.2,27.8 177,31 175.3,23.8 175.4,23.8 191.8,19.7 
			190.2,13.2 165.4,19.3 173.8,53.5 198.6,47.4 197.4,40.8 		"/>
		<path class="st0" d="M236.7,31.5c-2.4-2.5-4.9-5.1-7.8-5.7l-0.4-0.1l0.4-0.1c4.5-1.6,6.9-5.8,6.1-10.5c-0.3-1.9-1.3-4.5-4-6.2
			c-2.6-1.7-6.3-2.2-10.9-1.3L206.7,10l6.1,34.7l8.4-1.5l-5-28.1l3.6-0.6c3.9-0.7,6.2,0.6,6.8,3.9c0.9,5.2-4.4,7-6.5,7.7
			c2.5,1.3,4.7,4.3,6.9,7.2c1.2,1.6,2.4,3.3,3.7,4.6c2,2.1,4.2,3.4,8.1,2.7c1.1-0.2,4.8-1,6.4-3.2c-1.9,0-3.7-1-6.1-3.2
			C238.3,33.2,237.5,32.3,236.7,31.5z"/>
		<polygon class="st0" points="246.2,4.2 260.5,38.1 271.8,36.8 278.9,0.6 269.9,1.6 265.8,30.4 256,3.2 		"/>
		<polygon class="st0" points="301.1,28.7 301,21.1 314.5,20.9 314.4,14.2 300.9,14.4 300.8,6.9 300.9,6.9 317.8,6.7 317.7,0 
			292.2,0.3 292.7,35.5 318.6,35.2 318.5,28.5 		"/>
		<path class="st0" d="M334,30.2c-1.3,0-2.9-0.5-4.2-1.1c0,2,0.5,3.7,1.6,5c1.3,1.5,3.2,2.3,5.7,2.4c2.6,0.1,4.9-0.6,6.4-2
			c1.9-1.8,2.9-4.7,3.1-9l1-24.4L339,0.8l-1,25C338,28,337.4,30.3,334,30.2z"/>
		<path class="st0" d="M370.5,3.6l-14.4,33.8l8.3,0.9l2.6-6.7h0.1l10.8,1.2l1,7.1l9.1,1l-6.1-36.1L370.5,3.6z M376.8,26l-7.3-0.8
			l5.5-14.1l2,14.9H376.8z"/>
		<path class="st0" d="M428.1,42.5c-0.5-1-1-2.1-1.4-3.2c-1.4-3.2-2.8-6.5-5.3-8.1L421,31h0.4c0.1,0,0.1,0,0.2,0
			c4.7,0,8.3-3.1,9.2-7.7c0.3-1.9,0.4-4.7-1.6-7.3c-1.9-2.5-5.2-4.2-9.7-5.1L406,8.6l-6.4,34.6l8.3,1.5l5.1-28l3.6,0.7
			c3.9,0.7,5.6,2.7,5,6c-1,5.2-6.5,5.1-8.8,4.9c1.9,2.1,2.9,5.7,3.9,9.1c0.6,1.9,1.1,4,1.8,5.6c1.2,2.7,2.7,4.6,6.7,5.3
			c1.1,0.2,4.9,0.7,7.2-0.8C430.9,46.9,429.5,45.4,428.1,42.5z"/>
		
			<rect x="432.4" y="31.6" transform="matrix(0.2351 -0.972 0.972 0.2351 309.4039 464.8306)" class="st0" width="35.2" height="8.5"/>
		<path class="st0" d="M467.9,59.4l3.8-6.1h0.1l10.4,3.3l-0.4,7.1l8.7,2.7l1-36.6l-10.9-3.4L460,56.8L467.9,59.4z M475.5,47.3
			l8-12.6l-1,15l-7.1-2.2L475.5,47.3z"/>
	</g>
</g>
</svg>
